<svg width="116" height="32" viewBox="0 0 116 32" fill="none" xmlns="http://www.w3.org/2000/svg">
<path d="M6.45312 28.0781C6.45312 30.224 5.39062 31.3021 3.26562 31.3125C1.15104 31.3125 0.09375 30.2344 0.09375 28.0781V3.26562C0.09375 1.11979 1.15104 0.046875 3.26562 0.046875C5.39062 0.046875 6.45312 1.11979 6.45312 3.26562V28.0781ZM4.23438 3.26562C4.23438 2.57812 3.91667 2.23438 3.28125 2.23438H3.26562C2.63021 2.23438 2.3125 2.57812 2.3125 3.26562V28.0781C2.3125 28.776 2.63021 29.125 3.26562 29.125C3.91146 29.125 4.23438 28.776 4.23438 28.0781V3.26562ZM12.9531 14.5625V0.34375H15.1719V31H12.9531V16.75H11.0312V31H8.8125V0.34375H11.0312V14.5625H12.9531ZM17.6875 31V0.34375H19.9062V28.8125H23.4219V31H17.6875ZM27.0938 23.2812L26.6094 31H24.375L25.0938 20.1562L26.6562 0.34375H29.6875L31.25 20.125L31.9688 31H29.7344L29.25 23.2812H27.0938ZM29.125 21.0938L28.1719 5.82812L27.2188 21.0938H29.125ZM35.75 20.9219V28.0781C35.75 28.776 36.0729 29.125 36.7188 29.125C37.3542 29.125 37.6719 28.776 37.6719 28.0781V18.8281C37.6719 18.0885 36.9844 17.224 35.6094 16.2344C34.224 15.2552 33.5312 14.0573 33.5312 12.6406V3.25C33.5312 1.10417 34.5885 0.03125 36.7031 0.03125C38.8281 0.03125 39.8906 1.10417 39.8906 3.25V10.4375H37.6719V3.25C37.6719 2.5625 37.3542 2.21875 36.7188 2.21875H36.7031C36.0677 2.21875 35.75 2.5625 35.75 3.25V12.5938C35.75 13.2812 36.4375 14.1198 37.8125 15.1094C39.1979 16.0885 39.8906 17.2656 39.8906 18.6406V28.0781C39.8906 30.2344 38.8333 31.3125 36.7188 31.3125C34.5938 31.3021 33.5312 30.224 33.5312 28.0781V20.9219H35.75ZM43.8125 0.34375L45.3281 12.2969L46.8281 0.34375H49.1719L46.5 17.7344L46.4375 18.1094V31H44.2188V18.1094L44.1562 17.7344L41.4688 0.34375H43.8125Z" fill="#111111"/>
<path d="M59.2812 31H56.25L54.6875 11.1875L53.9688 0.34375H56.2031L57.7656 25.5156L59.3281 0.34375H61.5625L60.8438 11.2188L59.2812 31ZM69.4844 28.0781C69.4844 30.224 68.4219 31.3021 66.2969 31.3125C64.1823 31.3125 63.125 30.2344 63.125 28.0781V3.26562C63.125 1.11979 64.1823 0.046875 66.2969 0.046875C68.4219 0.046875 69.4844 1.11979 69.4844 3.26562V28.0781ZM67.2656 3.26562C67.2656 2.57812 66.9479 2.23438 66.3125 2.23438H66.2969C65.6615 2.23438 65.3438 2.57812 65.3438 3.26562V28.0781C65.3438 28.776 65.6615 29.125 66.2969 29.125C66.9427 29.125 67.2656 28.776 67.2656 28.0781V3.26562ZM71.8438 31V0.34375H74.0625V28.8125H77.5781V31H71.8438ZM79.3125 0.34375H82.7188C84.6875 0.34375 85.6719 1.41667 85.6719 3.5625V13.5312C85.6719 14.5312 85.2656 15.2396 84.4531 15.6562C85.2656 16.0729 85.6719 16.7865 85.6719 17.7969V27.7812C85.6719 29.9167 84.6406 30.9896 82.5781 31H79.3125V0.34375ZM81.5312 2.51562V14.5625H82.2188C82.5312 14.5625 82.7448 14.5417 82.8594 14.5C83.2552 14.3438 83.4531 14.0208 83.4531 13.5312V3.5625C83.4531 2.86458 83.1354 2.51562 82.5 2.51562H81.5312ZM81.5312 16.75V28.8125H82.5C83.1354 28.8125 83.4531 28.4688 83.4531 27.7812V17.7969C83.4531 17.3073 83.2552 16.9844 82.8594 16.8281C82.7448 16.776 82.5312 16.75 82.2188 16.75H81.5312ZM89.5938 0.34375L91.1094 12.2969L92.6094 0.34375H94.9531L92.2812 17.7344L92.2188 18.1094V31H90V18.1094L89.9375 17.7344L87.25 0.34375H89.5938ZM102.75 28.8125H106.891V31H100.531V21.3438C100.531 19.9271 101.224 18.7292 102.609 17.75C103.984 16.7604 104.672 15.8958 104.672 15.1562V3.26562C104.672 2.56771 104.354 2.21875 103.719 2.21875C103.073 2.21875 102.75 2.56771 102.75 3.26562V10.4375H100.531V3.26562C100.531 1.11979 101.594 0.0416667 103.719 0.03125C105.833 0.03125 106.891 1.10938 106.891 3.26562V15.3438C106.891 16.7188 106.198 17.8958 104.812 18.875C103.438 19.8646 102.75 20.7031 102.75 21.3906V28.8125ZM111.625 28.8125H115.766V31H109.406V21.3438C109.406 19.9271 110.099 18.7292 111.484 17.75C112.859 16.7604 113.547 15.8958 113.547 15.1562V3.26562C113.547 2.56771 113.229 2.21875 112.594 2.21875C111.948 2.21875 111.625 2.56771 111.625 3.26562V10.4375H109.406V3.26562C109.406 1.11979 110.469 0.0416667 112.594 0.03125C114.708 0.03125 115.766 1.10938 115.766 3.26562V15.3438C115.766 16.7188 115.073 17.8958 113.688 18.875C112.312 19.8646 111.625 20.7031 111.625 21.3906V28.8125Z" fill="#8B551B"/>
</svg>
